<svg xmlns="http://www.w3.org/2000/svg" xmlns:xlink="http://www.w3.org/1999/xlink" xmlns:cc="http://creativecommons.org/ns#" xmlns:dc="http://purl.org/dc/elements/1.1/" xmlns:rdf="http://www.w3.org/1999/02/22-rdf-syntax-ns#"><defs><style type="text/css">

    .fil0 {fill:black;fill-rule:nonzero}

  </style></defs>
  <symbol id="icon-audio" viewBox="0 0 50 62.5"><g>
  <path d="M4,42.65649h16.05176c0.81348,1.68701,2.51563,2.77686,4.43652,2.77686h1.01367c1.92283,0,3.62402-1.08936,4.4375-2.77686   H46c1.6543,0,3-1.3457,3-3v-28.75c0-1.6543-1.3457-3-3-3h-1.62012V6.56665c0-1.10303-0.89746-2-2-2H7.61035   c-1.10254,0-2,0.89697-2,2v1.33984H4c-1.6543,0-3,1.3457-3,3v28.75C1,41.31079,2.3457,42.65649,4,42.65649z M42.37793,36.48657H26   V13.2486c3.78558,0.49512,6.7207,3.73407,6.7207,7.65253v0.90192l-0.2373-0.05231   c-0.25781-0.05518-0.52832-0.00879-0.75293,0.13379c-0.22363,0.14307-0.38184,0.36865-0.43848,0.62793l-1.5918,7.24414   c-0.11816,0.53857,0.22266,1.07129,0.76172,1.18994l3.44043,0.7583c0.17773,0.0376,0.3584,0.05713,0.53906,0.05713   c1.20996,0,2.24023-0.82764,2.50391-2.01465l0.9209-4.18945c0.30371-1.37549-0.56836-2.74365-1.94824-3.05029l-1.19727-0.26385   v-1.34259c0-5.02344-3.8288-9.16882-8.7207-9.67346V6.56665h16.37988L42.37793,36.48657z M33.03027,23.91919l2.45605,0.54102   c0.30664,0.06836,0.49414,0.36035,0.42676,0.66699l-0.9209,4.18848c-0.06641,0.30273-0.40137,0.49072-0.66602,0.43457   l-2.45898-0.54199L33.03027,23.91919z M7.61035,6.56665H24v4.65955c-4.89673,0.5-8.73047,4.64807-8.73047,9.67493v1.34198   l-1.19922,0.26495c-0.66797,0.14844-1.23828,0.54639-1.60449,1.12061c-0.36816,0.57568-0.48926,1.26123-0.34082,1.92725   l0.91895,4.18457c0.24902,1.17139,1.30273,2.02148,2.50584,2.02148c0.18069,0,0.36135-0.01953,0.54592-0.05859l3.42578-0.75684   c0.53809-0.11914,0.87891-0.65137,0.76074-1.18994l-1.5918-7.24414c-0.05664-0.25928-0.21484-0.48535-0.43848-0.62793   c-0.22461-0.14258-0.49609-0.18945-0.75391-0.13379l-0.22852,0.05048v-0.90009c0-3.92181,2.94012-7.16321,6.73047-7.65405v23.2395   H7.61035V8.90649V6.56665z M16.95215,23.92017l1.16406,5.28857l-2.44531,0.54004c-0.30078,0.06787-0.60742-0.13086-0.67188-0.43018   l-0.9209-4.19434c-0.0332-0.14551-0.00684-0.29443,0.07227-0.41846c0.08008-0.12549,0.20605-0.2124,0.35156-0.24512   L16.95215,23.92017z M3,10.90649c0-0.55127,0.44824-1,1-1h1.61035v26.58008c0,1.10303,0.89746,2,2,2h34.76953   c1.10254,0,2-0.89697,2-2V9.90649H46c0.55176,0,1,0.44873,1,1v28.75c0,0.55127-0.44824,1-1,1H29.25977   c-0.43945,0-0.82715,0.28662-0.95605,0.70654c-0.37988,1.23828-1.50586,2.07031-2.80176,2.07031h-1.01367   c-1.29102,0-2.41602-0.82861-2.80566-2.08203c-0.13284-0.41406-0.51758-0.69482-0.95215-0.69482H4c-0.55176,0-1-0.44873-1-1   V10.90649z"/></g></symbol>

  <symbol id="icon-book" viewBox="0 0 67 83.75"><g><rect x="9.7334137" y="16.7678223" width="20.0332031" height="1.5"/><rect x="12.7334137" y="22.3605957" width="17.0332031" height="1.5"/><rect x="9.7334137" y="27.9538574" width="20.0332031" height="1.5"/><rect x="12.7334137" y="33.5466309" width="17.0332031" height="1.5"/><rect x="9.7334137" y="39.1394043" width="20.0332031" height="1.5"/><rect x="12.7334137" y="44.732666" width="17.0332031" height="1.5"/><rect x="37.2334137" y="16.7678223" width="20.0332031" height="1.5"/><rect x="37.2334137" y="22.3605957" width="17.0332031" height="1.5"/><rect x="37.2334137" y="27.9538574" width="20.0332031" height="1.5"/><rect x="37.2334137" y="33.5466309" width="17.0332031" height="1.5"/><rect x="37.2334137" y="39.1394043" width="20.0332031" height="1.5"/><rect x="37.2334137" y="44.732666" width="17.0332031" height="1.5"/><path d="M64.5000153,15.0603027h-2.7500038v-4.1303711c0-0.4140625-0.3359375-0.75-0.75-0.75H38.5800896   c-2.1878662,0-4.0842285,1.1828003-5.0794067,2.9533691c-0.9953003-1.770752-2.8927612-2.9533691-5.0807495-2.9533691H6.0000119   c-0.4140625,0-0.75,0.3359375-0.75,0.75v4.1303711H2.5000117c-0.4140625,0-0.7499999,0.3359375-0.7499999,0.75v40.2597656   c0,0.4140625,0.3359374,0.75,0.7499999,0.75c7.5300312,0,54.4430313,0,62.0000038,0c0.4140625,0,0.75-0.3359375,0.75-0.75   V15.8103027C65.2500153,15.3962402,64.9140778,15.0603027,64.5000153,15.0603027z M38.5800896,11.6799316h21.6699219   c0,6.7162819,0,24.4085197,0,40.1704102H36.9799919c-1.0315399,0-2.0628548,0.4350052-2.7299805,0.9990234V16.0002441   C34.2500114,13.6059198,36.1669312,11.6799316,38.5800896,11.6799316z M6.7500119,11.6799316h21.6699219   c2.3452148,0,4.2431641,1.8251953,4.3208008,4.1552734c0.0009766,0.0322266,0.0039063,0.1333008,0.0092773,0.1650391v0.0058594   v0.0014648v36.8388672c-0.6653481-0.5617943-1.6855812-0.9960938-2.7202148-0.9960938H6.7500119   C6.7500119,36.0937195,6.7500119,18.3940659,6.7500119,11.6799316z M3.2500117,16.5603027h2.0000002v36.0400391   c0,0.4140625,0.3359375,0.75,0.75,0.75h24.0297852c1.1432896,0,2.2481232,0.7500114,2.6018066,1.9697266H3.2500117V16.5603027z    M63.7500114,55.3200684H34.3688469c0.3560753-1.2256126,1.4498596-1.9697266,2.611145-1.9697266h24.0200195   c0.4140625,0,0.75-0.3359375,0.75-0.75V16.5603027h2V55.3200684z"/></g></symbol>

  <symbol id="icon-call" viewBox="0 0 26.458 33.0725"><g transform="translate(0 -270.54)"><path d="m3.8504 271.06c-0.42594 0.0202-0.84418 0.20131-1.1509 0.5385l-2.1452 2.3582c3e-3 -7e-3 -0.0084-6e-3 -0.06918 0.08a0.52092 0.52092 0 0 0-0.0746 0.14582c-0.87318 2.7814-0.28784 5.841 1.138 8.751 1.4259 2.91 3.7003 5.6948 6.3115 7.9799 2.6112 2.2852 5.5574 4.073 8.3665 4.9598 2.8091 0.88678 5.5328 0.87506 7.5513-0.58937a0.52092 0.52092 0 0 0 0.06172-0.0536c0.05288-0.0529 0.05468-0.0596 0.04612-0.0516l0.0081-0.0102 2.135-2.348c0.6135-0.67444 0.564-1.7345-0.11055-2.348l-5.0649-4.6064c-0.67444-0.6135-1.7345-0.56456-2.348 0.10987l-2.2917 2.5202c-1.8602-0.53863-3.4506-1.4518-4.9801-2.8431-1.5298-1.3915-2.5896-2.8891-3.3016-4.6906l2.291-2.5202c0.61351-0.67445 0.56469-1.7345-0.10987-2.348l-5.0649-4.6064c-0.33722-0.30675-0.77111-0.44811-1.1971-0.42795zm0.04815 1.0336c0.1569-7e-3 0.31653 0.0475 0.44694 0.16616l5.0649 4.6064c0.26093 0.23729 0.27865 0.61608 0.04137 0.87694l-2.5325 2.7834a0.52092 0.52092 0 0 0-0.10309 0.52833c0.76861 2.0975 2.0085 3.8182 3.7146 5.3701 1.7061 1.5518 3.5349 2.624 5.6957 3.191a0.52092 0.52092 0 0 0 0.51748-0.15328l2.5331-2.7841c0.23725-0.2608 0.61543-0.27802 0.87626-0.0407l5.0656 4.6064c0.26092 0.23728 0.27797 0.61541 0.04069 0.87625l-2.1174 2.3276c-1.6564 1.189-3.9899 1.2556-6.6031 0.43067-2.6234-0.82818-5.4714-2.5436-7.9921-4.7496-2.5207-2.206-4.7143-4.9-6.0626-7.6516-1.3344-2.7234-1.8185-5.4766-1.0845-7.9033l2.0686-2.2734c0.11863-0.13041 0.27309-0.20024 0.42999-0.20754z" color="#000000" color-rendering="auto" dominant-baseline="auto" image-rendering="auto" shape-rendering="auto" solid-color="#000000" style="font-feature-settings:normal;font-variant-alternates:normal;font-variant-caps:normal;font-variant-ligatures:normal;font-variant-numeric:normal;font-variant-position:normal;isolation:auto;mix-blend-mode:normal;shape-padding:0;text-decoration-color:#000000;text-decoration-line:none;text-decoration-style:solid;text-indent:0;text-orientation:mixed;text-transform:none;white-space:normal;"/></g></symbol>
  <symbol id="icon-campfire" viewBox="0 0 68 85"><g><g><path d="M54.8129,35.2228c-0.58-1.31-1.38-2.6-2.55-4.09c-2.95-3.74-3.85-12.08-3.86-12.16c-0.04-0.4-0.32-0.73-0.69-0.85    c-0.38-0.12-0.79-0.01-1.06,0.29c-3.52,3.97-2.04,10.1-1.24,12.55c0.22,0.67,0.46,1.46,0.6299,2.26c1.3,6.47-1.21,9.4-1.8,9.99    c-0.57,0.16-0.96,0.08-1.32-0.31c-1.24-1.37-1.65-5.86-1.07-11.71c0.1201-1.19,0.09-2.26-0.08-3.26    c-1.2232-7.1903-5.7082-11.8025-6.85-13.42c-3.14-4.68-3.46-12.47-3.47-12.54c-0.01-0.37-0.22-0.7-0.55-0.86    c-0.32-0.16-0.71-0.14-1.01,0.07c-5.24,3.59-4.79,12.24-4.06,17.07c0.17,1.12,0.5,2.26,1.07,3.7c2.03,5.15-0.4,11.8-0.42,11.86    c-0.02,0.06-0.04,0.11-0.05,0.17c-0.31,1.64-0.83,2.62-1.41,2.62c-0.06,0-0.12-0.01-0.19-0.03c-0.71-0.15-1.08-0.91-1.09-1.57    c-0.04-8.53-8.53-11.4-8.62-11.43c-0.38-0.12-0.8-0.01-1.06,0.3c-0.27,0.31-0.32,0.74-0.14,1.1c0.1,0.21,0.42,1.13,0.2,4.38    c-0.19,2.92-0.72,5.81-1.57,8.58c-2.02,6.64-1.7,12.93-1.68,13.23c1.5533,17.0307,25.8439,20.0149,40.26,10.42    c1.58-1.05,2.87-2.25,3.82-3.57C60.2729,50.6128,57.1429,40.5628,54.8129,35.2228z M17.8629,51.4928    c0.03,0.55-0.39,1.02-0.94,1.05h-0.06c-0.53,0-0.97-0.41-1-0.94c-0.09-1.46-0.07-2.99,0.04-4.65c0.04-0.55,0.52-0.96,1.07-0.9301    c0.55,0.04,0.97,0.52,0.93,1.07C17.7928,48.6728,17.7729,50.1128,17.8629,51.4928z M18.3528,42.6328    c-0.06,0.51-0.49,0.88-0.99,0.88c-0.04,0-0.08,0-0.13-0.01c-0.54-0.07-0.93-0.56-0.87-1.11l0.48-3.86    c0.07-0.54,0.56-0.93,1.12-0.87c0.55,0.07,0.94,0.57,0.87,1.12L18.3528,42.6328z"/></g><g><path d="M48.0474,14.6811c-0.5454-0.0845-0.9194-0.5942-0.8354-1.1396c0.0625-0.4063,0.4238-2.4863,1.4043-3.5322    c0.3774-0.4033,1.0093-0.4243,1.4136-0.0454c0.4028,0.3774,0.4233,1.0103,0.0454,1.4136    c-0.415,0.4429-0.7686,1.7104-0.8867,2.4688C49.1042,14.3859,48.6009,14.7646,48.0474,14.6811z"/></g><g><path d="M11.5914,19.6621c-0.1914-0.7437-0.667-1.9702-1.1235-2.3706c-0.4155-0.3643-0.457-0.9961-0.0928-1.4111    c0.3633-0.416,0.9946-0.4585,1.4111-0.0928c1.0776,0.9448,1.6406,2.9795,1.7427,3.3774c0.1367,0.5347-0.1855,1.0786-0.7197,1.2163    C12.2632,20.5186,11.7275,20.1879,11.5914,19.6621z"/></g></g><text x="0" y="83" fill="#000000" font-size="5px" font-weight="bold" font-family="&apos;Helvetica Neue&apos;, Helvetica, Arial-Unicode, Arial, Sans-serif">Created by Vectors Point</text><text x="0" y="88" fill="#000000" font-size="5px" font-weight="bold" font-family="&apos;Helvetica Neue&apos;, Helvetica, Arial-Unicode, Arial, Sans-serif">from the Noun Project</text></symbol><symbol id="icon-check" viewBox="0 0 90 112.5"><g><g><g><g><g><path d="M71.9418945,18.8634033c-2.6781006,1.1981201-5.244873,2.6610718-7.6948853,4.2927246       c-4.9273071,3.2418823-9.4319458,7.1021729-13.6573486,11.2189941       c-4.2234497,4.1269531-8.1554565,8.5432739-11.8733521,13.135376       c-0.9299316,1.1483154-5.0931396,6.2611084-5.0931396,6.2611084L16.3092651,27.8265991L9.7731934,45.9440918       l23.4138794,27.923584c2.2736206-4.6030884,4.461731-9.1470947,6.6079102-13.0950928       c0.5333252-1.0039673,1.0917969-1.9487915,1.6256104-2.9082642c0,0,2.7476807-4.8302002,3.4702759-6.046936       c2.8895264-4.8664551,6.0128174-9.6068726,9.4520264-14.1101074       c3.4431763-4.4949951,7.1862793-8.7862549,11.4295654-12.5586548c2.1114502-1.8986206,4.3588257-3.6541138,6.7667236-5.1818237       c2.4031982-1.5307007,4.9564819-2.8710938,7.6876221-3.8344727       C77.3856812,16.6912842,74.6135864,17.6619873,71.9418945,18.8634033z"/></g></g></g></g></g></symbol>

  <symbol id="icon-communication" viewBox="0 0 67 83.75"><g><path d="M5.0195,26.5586v5.7099c0,0.3067,0.1407,0.5957,0.3819,0.7862c3.90232,3.0713,8.7988,4.7636,13.7881,4.7636   c1.49322,0,2.9877-0.1561,4.449-0.4512c3.1147,1.3767,6.4299,2.0811,9.8615,2.0811c3.4426,0,6.7586-0.7047,9.8623-2.081   c6.2332,1.2587,12.875-0.0932,18.23542-4.3125c0.24118-0.1905,0.38178-0.4795,0.38178-0.7862v-5.7099   c0-0.8379-0.416-1.6016-1.1592-2.0713l-7.7988-4.3875c1.706-2.1648,2.9771-5.247,3.19822-7.8908   C56.867,7.6584,53.1581,2.8389,47.8193,2.8389c-2.2449,0-4.3789,0.9241-5.9448,2.474c-0.0542,0.0537-0.116,0.099-0.1687,0.1542   c-0.0483,0.0504-0.0873,0.1092-0.1342,0.1609c-0.0313,0.0343-0.0585,0.0722-0.0892,0.107   c-1.5258-2.7824-4.4586-4.5016-7.914-4.5016c-0.33568,0-0.6654,0.023-0.992,0.0562c-0.0198-0.0012-0.03668-0.0113-0.0569-0.0113   c-0.1855,0-0.5781,0.0488-0.788,0.1094c-0.0311,0.009-0.0534,0.0309-0.08278,0.0425C29.0684,1.952,26.8826,3.5156,25.5726,5.778   c-1.5755-1.8372-3.8916-2.9382-6.4105-2.9382c-7.8813,0-11.3779,9.3006-5.1567,17.3045l-7.8706,4.3694   C5.4365,24.956,5.0195,25.7207,5.0195,26.5586z M43.34272,35.1697c-0.16912,0.0825-0.33642,0.1707-0.50682,0.2483l-0.00018,0.0001   c-0.00122,0.0005-0.00242,0.0013-0.00372,0.0018c-2.9287,1.3457-6.06828,2.0283-9.332,2.0283   c-3.2539,0-6.3935-0.6826-9.3359-2.0302c-1.4317-0.6514-2.81638-1.4795-4.1241-2.462v-5.788c0-0.1973,0.09572-0.3721,0.2061-0.4454   l9.1597-5.0909c1.1396,0.9675,2.5955,1.6769,4.104,1.6769c1.4531,0,3.0225-0.7198,4.139-1.7006l9.0485,5.0814   c0.167,0.1075,0.2627,0.2813,0.2627,0.4786v5.7871C45.808,33.8207,44.59472,34.558,43.34272,35.1697z M59.794,26.2031   c0.1181,0.0742,0.1855,0.2041,0.1855,0.3555v5.2178c-3.96978,2.9792-8.7465,4.3314-13.5859,3.9921   c0.7445-0.4647,1.5553-1.0411,2.1836-1.5332c0.2412-0.1894,0.3828-0.4795,0.3828-0.7871V27.168   c0-0.877-0.4405-1.6846-1.2305-2.1914l-4.8066-2.7012l1.1689-0.6475c1.4177,1.1561,2.6351,1.5,3.7275,1.5   c1.336,0,2.7427-0.6554,3.7872-1.5303L59.794,26.2031z M47.8193,4.8389c2.7839,0,5.2292,1.8192,6.0928,4.3203   c-1.6797-0.1993-3.3223-1.0284-4.5107-2.3028c-0.2149-0.2304-0.5205-0.3496-0.8379-0.3125   c-0.3125,0.0332-0.59078,0.2119-0.752,0.4815c-1.1406,1.9111-3.0107,3.1865-5.1377,3.5488   c0.0001-0.002-0.0003-0.0038-0.0003-0.0058c0.0095-0.4351-0.01578-0.876-0.0656-1.3169c-0.0051-0.0452-0.0093-0.0896-0.015-0.1343   c-0.0644-0.5009-0.2153-1.1268-0.24518-1.2276C43.4833,6.0703,45.59272,4.8389,47.8193,4.8389z M42.45472,12.6146   c2.52658-0.2768,4.81168-1.5464,6.38118-3.5531c1.547,1.2687,3.5095,2.0375,5.44882,2.1304   c-0.015,3.6137-2.96672,9.936-6.46542,9.936c-2.6967,0-4.999-3.8565-5.8593-6.5303   C42.1786,13.9099,42.3378,13.2484,42.45472,12.6146z M42.6578,20.1353l-1.7865,0.9893l-1.8042-1.0133   c0.6689-0.8333,1.2822-1.8008,1.8075-2.8504C41.3795,18.3224,41.9846,19.2978,42.6578,20.1353z M39.9619,14.2705   c-0.9644,2.8769-3.4381,7.0381-6.4521,7.0381c-3.5135,0-6.5056-5.776-7.0757-9.4698c0.1521-0.0377,4.89962,0.2548,8.1665-4.0351   c1.6584,1.3872,3.8956,2.3053,6.0716,2.3964C40.6979,11.504,40.3816,13.036,39.9619,14.2705z M33.5684,3.2334   c5.6056,0,6.6727,4.8248,6.7605,4.9249c-2.0326-0.2064-3.8873-1.2022-5.1687-2.5724c-0.2149-0.2304-0.5274-0.3457-0.8389-0.3115   c-0.3135,0.0342-0.5918,0.2139-0.7529,0.4854c-1.1104,1.8786-2.8519,3.2036-4.8682,3.7667   C27.9218,9.744,27.081,9.8432,26.348,9.8361C26.6224,6.1621,29.567,3.2334,33.5684,3.2334z M26.1299,17.2417   c0.5187,1.038,1.1351,2.0295,1.8406,2.9006l-1.7654,0.9813l-1.8288-1.0279C25.0699,19.2117,25.6586,18.2226,26.1299,17.2417z    M19.1621,4.8398c2.2679,0,4.3459,1.1509,5.5039,3.0528c-0.0581,0.2016-0.2146,1.0041-0.23528,1.1045   c-1.39162-0.333-2.67-1.0743-3.67192-2.1426c-0.2158-0.2295-0.5205-0.3438-0.8389-0.3106   c-0.3125,0.0342-0.5908,0.2139-0.7509,0.4844c-1.3376,2.2573-3.7928,3.6593-6.40728,3.66   C13.0801,7.4075,15.823,4.8398,19.1621,4.8398z M12.8496,12.6832c2.8737-0.028,5.5868-1.3825,7.3457-3.6217   c1.2016,0.9892,2.6287,1.6405,4.1452,1.938c0.0588,1.1593,0.3609,2.568,0.7064,3.6069c-0.5521,1.6934-1.6116,3.712-2.9256,5.0526   c-0.0084,0.0083-0.0194,0.0121-0.0275,0.0207c-0.8223,0.8662-1.9922,1.4492-2.9122,1.4492   C15.9671,21.1289,13.45272,16.0709,12.8496,12.6832z M7.0195,26.5586c0-0.1514,0.0674-0.2803,0.1358-0.3262l8.3003-4.6062   c0.4979,0.4146,0.6125,0.4619,0.7127,0.5352l-0.0003,0.0007c0.9768,0.6492,1.8721,0.9727,3.09372,0.9727   c1.30088,0,2.48518-0.5512,3.52738-1.4c0.0587-0.046,0.1219-0.0904,0.1777-0.1372l1.1846,0.6661l-4.9336,2.7441   C18.4805,25.4834,18.04,26.291,18.04,27.168v6.2802c0,0.3067,0.14072,0.5967,0.3829,0.7862   c0.6387,0.5017,1.46682,1.0869,2.1836,1.5351c-4.9092,0.335-9.6856-1.0654-13.587-3.9931V26.5586z"/><path d="M64.0381,43.1416c-1.2305-0.7734-2.7451-0.8535-4.0479-0.2217l-12.3409,5.9617c-0.043-2.3098-1.9281-4.1775-4.2489-4.1775   l-7.0762,0.0019c-3.4892-3.0332-7.9482-4.8906-12.0029-4.9882c-3.9984-0.0948-7.5877-0.1214-9.2617-0.1289v-2.0206H1v23.2256   h14.0596v-2.7813c3.8556,2.212,13.9936,7.754,18.8047,7.754c0.1093,0,0.2158-0.0029,0.3183-0.0088   c8.461-0.47459,28.416-14.5166,29.7324-15.4492C65.2022,49.5615,66,48.1787,66,46.6875C66,45.2373,65.2666,43.9121,64.0381,43.1416   z M13.0596,58.7939H3V39.5683h10.0596V58.7939z M62.88572,48.5937c-0.03022,0.0166-0.06052,0.0352-0.08882,0.0557   c-0.2061,0.1465-20.7324,14.6631-28.7256,15.1123c-0.0791,0.0039-0.1592,0.0059-0.2432,0.0059   c-4.2198,0-14.5083-5.551-18.7685-8.0686v-14.11c1.6677,0.0075,5.2363,0.0342,9.2138,0.1288   c3.7041,0.0888,7.8164,1.8574,11.002,4.7304l0.2852,0.2578l7.8398-0.0019c1.2441,0,2.2568,1.0117,2.2568,2.2558   c0,1.2442-1.0117,2.2569-2.2558,2.2569H28.9981v2h14.4033c1.38032,0,2.5969-0.671,3.375-1.6929l14.084-6.8032   c0.6914-0.3369,1.4628-0.294,2.1152,0.1152C63.627,45.2441,64,45.9189,64,46.6875C64,47.4766,63.5732,48.206,62.88572,48.5937z"/><rect x="32.5" y="25.7529" width="2" height="1.8545"/><rect x="32.5" y="29.4512" width="2" height="1.8545"/><rect x="32.5" y="33.14941" width="2" height="1.8545"/></g></symbol>

  <symbol id="icon-female_student" viewBox="0 0 67 83.75"><g><path d="M5.78747,65.50235c7.1273,0,48.36054,0,55.47949,0c0.27477-6.29995-0.17843-16.75259-4.06836-21.72754l-0.14063-0.17871   l-8.50037-4.24976c0.18457-0.61987,0.27545-1.18781,0.31189-1.60522c0.04199-0.50098-0.02734-0.97168-0.20703-1.39795   c-1.40234-3.34149-4.36975-5.09943-6.00201-5.84882c0.49744-0.99792,0.81812-2.06921,0.97302-3.16382   c0.92395-0.25916,1.66718-0.98828,1.91083-1.961l0.99219-4.01367c0.17578-0.70801,0.06543-1.44238-0.3125-2.06689   c-0.1626-0.26923-0.37292-0.49591-0.60876-0.6897c2.79736-6.32721-1.88788-12.29315-2.14319-12.60718   C38.39782,0.5292,31.98767,1.55069,31.6488,1.61123C22.39806,3.54006,18.82815,10.59952,20.84362,18.879   c-0.59711,0.65863-0.84772,1.57617-0.62646,2.47589l0.99707,4.01807c0.24176,0.96552,0.97906,1.69208,1.89648,1.95435   c0.28302,2.00458,1.13519,3.81763,2.38672,5.27881v3.18188c-13.2749,6.76916-4.86356,2.45059-15.50195,7.80957   c-0.02103,0.1-4.99176,5.36036-4.25293,20.95215L5.78747,65.50235z M59.33923,63.50235h-9.13086v-3.81934l6.03906-13.76611   C59.27282,50.9169,59.38513,60.46378,59.33923,63.50235z M46.87732,37.5712c-0.35234,4.03046-2.5721,2.81221-3.94238,5.91748   c-1.07774-1.18006-1.40189-2.59515-1.1123-4.10986c0.52332-2.78126-1.18151-3.60732-0.76013-6.52972l0.06384-0.06696v-0.00928   c0.03621-0.04029,0.3724-0.43896,0.46973-0.56494C45.20862,33.77605,46.94781,36.69244,46.87732,37.5712z M27.49743,34.40323   c1.67706,1.15826,3.70148,1.84277,5.87891,1.84277c2.05066,0,3.99829-0.59412,5.66815-1.68823   c0.23144,2.29744,1.13324,2.75734,0.81329,4.448c-0.06006,0.31384-0.09247,0.62311-0.11176,0.92725l-6.21832,6.97852   l-7.9491-8.92365l1.91882-0.99774V34.40323z M24.99743,25.8627v-3.86914c0-1.42481,0-7.07747,0-6.79834   c0.96777-1.78223,2.28711-3.07471,3.92676-3.84961c4.39135,2.47409,9.44606,6.1664,12.83594,9.88239   c-0.00321,4.73233,0.01341,4.7452-0.01819,5.13403l-0.00214,0.02466c-0.26452,4.29726-3.81307,7.85932-8.36346,7.85932   c-4.42383,0-8.09668-3.4585-8.36231-7.90186C25.00036,26.18497,24.99743,26.0253,24.99743,25.8627z M23.75915,38.95303   l9.76856,10.96533l6.55829-7.36005c0.1499,0.42975,0.36011,0.83575,0.60059,1.22791l-7.15887,8.91437L22.85241,39.40628   L23.75915,38.95303z M43.76013,24.25332v-3.08936c0.08787-0.10032,0.83347-0.95158,0.74561-0.85126   C44.54693,21.8769,44.7165,20.03071,43.76013,24.25332z M32.01892,3.57657c0.39676,0.0246,5.72744-0.80739,9.94043,3.72168   c0.16583,0.20728,3.5954,4.60712,2.21759,9.42035c-0.47156-2.14178-1.29358-4.88641-2.59259-6.19623l-1.41992,1.4082   c1.28265,1.29358,2.12512,5.23279,2.44598,7.27496C36.72703,13.07538,29.13767,9.19545,29.03356,9.12979   c-0.38063,0.23572-3.59227,0.84372-5.9248,5.35791l-0.11133,0.21582v3.31543c-0.10015,0.00106-0.39416,0.00417-0.29401,0.00311   C21.22141,10.89748,24.05951,5.23777,32.01892,3.57657z M22.49267,20.0795l0.50476,2.03613v2.14014l-0.83887-3.38086   C22.03547,20.37101,22.41039,20.17986,22.49267,20.0795z M21.02215,40.3212l12.50556,15.57373l8.461-10.53729   c0.92043,0.82024,1.3629,0.93656,3.31439,1.93573l-0.6582-2.22314c-0.16699-0.56445,0.49414-1.46973,0.89355-1.88574   c0.89148-0.48151,1.63458-1.16827,2.19043-2.01611l6.90332,3.45166l-6.42383,14.64404v4.23828H18.84606v-4.23877l-6.42676-14.64209   L21.02215,40.3212z M10.80602,45.9213l6.04004,13.76221v3.81885H7.7152C7.66931,60.46475,7.78259,50.92276,10.80602,45.9213z"/></g></symbol>

  <symbol id="icon-instagram" viewBox="0 0 512 512.00038"><radialGradient id="a" cx="104.9571229418" cy="447.4474330468" gradientUnits="userSpaceOnUse" r="564.64588968"><stop offset="0" stop-color="#fae100"/><stop offset=".0544" stop-color="#fadc04"/><stop offset=".1167" stop-color="#fbce0e"/><stop offset=".1829" stop-color="#fcb720"/><stop offset=".2514" stop-color="#fe9838"/><stop offset=".3054" stop-color="#ff7950"/><stop offset=".4922" stop-color="#ff1c74"/><stop offset="1" stop-color="#6c1cd1"/></radialGradient><linearGradient id="b" gradientUnits="userSpaceOnUse" x1="196.3726539866" x2="-671.0159540134" y1="222.4596783332" y2="-265.4464136668"><stop offset="0" stop-color="#a1b5d8" stop-opacity="0"/><stop offset=".3094" stop-color="#90a2bd" stop-opacity=".309804"/><stop offset=".7554" stop-color="#7c8b9c" stop-opacity=".756863"/><stop offset="1" stop-color="#748290"/></linearGradient><linearGradient id="c" gradientUnits="userSpaceOnUse" x1="256.0003" x2="256.0003" y1="451.9660859688" y2="531.773969673"><stop offset="0" stop-color="#fae100" stop-opacity="0"/><stop offset=".3068" stop-color="#fca800" stop-opacity=".305882"/><stop offset=".6275" stop-color="#fe7300" stop-opacity=".627451"/><stop offset=".8685" stop-color="#ff5200" stop-opacity=".866667"/><stop offset="1" stop-color="#ff4500"/></linearGradient><linearGradient id="d"><stop offset="0" stop-color="#833ab4" stop-opacity="0"/><stop offset="1" stop-color="#833ab4"/></linearGradient><linearGradient id="e" gradientUnits="userSpaceOnUse" x1="226.8724066998" x2="100.1606848024" xlink:href="#d" y1="226.147987369" y2="99.4361650794"/><linearGradient id="f" gradientUnits="userSpaceOnUse" x1="350.899540777" x2="287.6555669352" xlink:href="#d" y1="468.287448276" y2="170.1375727138"/><linearGradient id="g" gradientUnits="userSpaceOnUse" x1="374.965057" x2="120.9410670648" xlink:href="#d" y1="374.9649673922" y2="120.9408770648"/><linearGradient id="h" gradientUnits="userSpaceOnUse" x1="393.806665096" x2="309.8058007666" xlink:href="#d" y1="221.2631037014" y2="137.2623397642"/><linearGradient id="i" gradientUnits="userSpaceOnUse" x1="357.6582448576" x2="150.5426107646" y1="155.0495285836" y2="362.1651626766"><stop offset="0" stop-color="#833ab4"/><stop offset=".0922" stop-color="#9c3495"/><stop offset=".2927" stop-color="#dc2546"/><stop offset=".392" stop-color="#fd1d1d"/><stop offset=".5589" stop-color="#fc6831"/><stop offset=".6887" stop-color="#fc9b40"/><stop offset=".7521" stop-color="#fcaf45"/><stop offset=".7806" stop-color="#fdb750"/><stop offset=".8656" stop-color="#fecb6a"/><stop offset=".9415" stop-color="#ffd87a"/><stop offset="1" stop-color="#ffdc80"/></linearGradient><path d="m503.234375 91.578125c-4.660156-43.664063-39.144531-78.15625-82.8125-82.8125-109.507813-11.6875-219.335937-11.6875-328.839844 0-43.667969 4.660156-78.15625 39.148437-82.816406 82.8125-11.6875 109.503906-11.6875 219.335937 0 328.839844 4.660156 43.667969 39.148437 78.15625 82.8125 82.816406 109.503906 11.6875 219.335937 11.6875 328.84375 0 43.667969-4.660156 78.152344-39.148437 82.8125-82.816406 11.6875-109.503907 11.6875-219.332031 0-328.839844zm0 0" fill="url(#a)"/><path d="m475.386719 110.097656c-4.132813-38.746094-34.734375-69.351562-73.484375-73.488281-97.171875-10.367187-194.632813-10.367187-291.804688 0-38.746094 4.136719-69.351562 34.742187-73.488281 73.488281-10.367187 97.171875-10.367187 194.632813 0 291.800782 4.136719 38.75 34.742187 69.355468 73.488281 73.488281 97.171875 10.371093 194.632813 10.371093 291.800782 0 38.75-4.132813 69.355468-34.738281 73.488281-73.488281 10.371093-97.167969 10.371093-194.628907 0-291.800782zm0 0" fill="url(#b)"/><path d="m7.671875 409.804688c.351563 3.539062.714844 7.078124 1.09375 10.617187 4.660156 43.664063 39.148437 78.152344 82.816406 82.8125 109.503907 11.6875 219.335938 11.6875 328.839844 0 43.667969-4.660156 78.152344-39.148437 82.8125-82.8125.378906-3.539063.742187-7.078125 1.097656-10.617187zm0 0" fill="url(#c)"/><path d="m503.234375 420.417969c6.28125-58.839844 9.179687-117.773438 8.710937-176.699219l-117.03125-117.03125c-14.621093-16.691406-35.976562-27.109375-61.070312-28.011719-51.605469-1.859375-103.375-1.765625-154.988281.007813-42.867188 1.476562-72.84375 30.289062-80.53125 72.636718-1.355469 7.476563-2.167969 15.050782-3.234375 22.582032v124.148437c.589844 4.023438 1.457031 8.027344 1.726562 12.074219 1.71875 25.757812 12.304688 47.820312 29.253906 62.746094l119.09375 119.089844c58.445313.410156 116.894532-2.496094 175.257813-8.726563 43.667969-4.660156 78.152344-39.148437 82.8125-82.816406zm0 0" fill="url(#e)"/><path d="m503.234375 420.421875c-4.65625 43.660156-39.152344 78.15625-82.8125 82.8125-58.355469 6.226563-116.816406 9.136719-175.253906 8.726563l-118.914063-118.914063c13.785156 12.066406 31.753906 19.414063 52.605469 20.199219 51.601563 1.9375 103.382813 1.886718 154.984375.027344 46.671875-1.6875 80.445312-36.230469 81.902344-82.902344 1.554687-49.554688 1.554687-99.238282 0-148.792969-.664063-21.53125-8.222656-40.476563-20.753906-54.8125l116.957031 116.957031c.460937 58.917969-2.4375 117.859375-8.714844 176.699219zm0 0" fill="url(#f)"/><path d="m316.414062 200.558594c-14.992187-16.324219-36.503906-26.566406-60.414062-26.566406-45.289062 0-82.007812 36.71875-82.007812 82.007812 0 23.910156 10.242187 45.421875 26.566406 60.414062l189.738281 189.738282c10.042969-.875 20.085937-1.847656 30.121094-2.917969 43.667969-4.660156 78.15625-39.148437 82.816406-82.816406 1.070313-10.035157 2.042969-20.078125 2.917969-30.121094zm0 0" fill="url(#g)"/><path d="m511.007812 311.152344-152.703124-152.699219c-3.5625-4.675781-9.175782-7.710937-15.507813-7.710937-10.773437 0-19.511719 8.734374-19.511719 19.511718 0 6.332032 3.035156 11.945313 7.710938 15.507813l177.28125 177.285156c1.203125-17.292969 2.113281-34.59375 2.730468-51.894531zm0 0" fill="url(#h)"/><path d="m95.089844 193.902344c1.066406-7.53125 1.878906-15.105469 3.234375-22.582032 7.683593-42.347656 37.664062-71.160156 80.53125-72.636718 51.613281-1.773438 103.382812-1.867188 154.988281-.007813 46.65625 1.679688 80.445312 36.226563 81.902344 82.898438 1.550781 49.558593 1.550781 99.238281 0 148.796875-1.457032 46.671875-35.234375 81.214844-81.898438 82.898437-51.605468 1.863281-103.386718 1.910157-154.988281-.027343-46.664063-1.753907-78.921875-36.378907-82.042969-83.121094-.269531-4.042969-1.136718-8.050782-1.726562-12.074219 0-41.382813 0-82.765625 0-124.144531zm160.953125 191.707031c23.617187 0 47.257812.707031 70.84375-.164063 36.980469-1.371093 59.726562-23.441406 60.589843-60.386718 1.070313-46.035156 1.070313-92.132813 0-138.171875-.863281-36.9375-23.625-59.523438-60.589843-60.308594-46.917969-.992187-93.886719-.984375-140.804688 0-36.683593.769531-59.496093 22.898437-60.492187 59.429687-1.265625 46.617188-1.265625 93.316407 0 139.933594.996094 36.527344 23.808594 58.144532 60.496094 59.503906 23.289062.867188 46.636718.164063 69.957031.164063zm0 0" fill="url(#i)"/><g fill="#fff"><path d="m95.089844 193.902344c1.066406-7.53125 1.878906-15.105469 3.234375-22.582032 7.683593-42.347656 37.664062-71.160156 80.53125-72.636718 51.613281-1.773438 103.382812-1.867188 154.988281-.007813 46.65625 1.679688 80.445312 36.226563 81.902344 82.898438 1.550781 49.558593 1.550781 99.238281 0 148.796875-1.457032 46.671875-35.234375 81.214844-81.898438 82.898437-51.605468 1.863281-103.386718 1.910157-154.988281-.027343-46.664063-1.753907-78.921875-36.378907-82.042969-83.121094-.269531-4.042969-1.136718-8.050782-1.726562-12.074219 0-41.382813 0-82.765625 0-124.144531zm160.953125 191.707031c23.617187 0 47.257812.707031 70.84375-.164063 36.980469-1.371093 59.726562-23.441406 60.589843-60.386718 1.070313-46.035156 1.070313-92.132813 0-138.171875-.863281-36.9375-23.625-59.523438-60.589843-60.308594-46.917969-.992187-93.886719-.984375-140.804688 0-36.683593.769531-59.496093 22.898437-60.492187 59.429687-1.265625 46.617188-1.265625 93.316407 0 139.933594.996094 36.527344 23.808594 58.144532 60.496094 59.503906 23.289062.867188 46.636718.164063 69.957031.164063zm0 0"/><path d="m256 173.996094c-45.289062 0-82.007812 36.714844-82.007812 82.003906 0 45.292969 36.71875 82.007812 82.007812 82.007812 45.292969 0 82.007812-36.714843 82.007812-82.007812 0-45.289062-36.714843-82.003906-82.007812-82.003906zm0 135.777344c-29.699219 0-53.773438-24.074219-53.773438-53.773438s24.074219-53.773438 53.773438-53.773438 53.773438 24.074219 53.773438 53.773438-24.074219 53.773438-53.773438 53.773438zm0 0"/><path d="m362.304688 170.253906c0 10.773438-8.734376 19.507813-19.507813 19.507813s-19.511719-8.734375-19.511719-19.507813c0-10.777344 8.738282-19.511718 19.511719-19.511718s19.507813 8.734374 19.507813 19.511718zm0 0"/></g></symbol>

  <symbol id="icon-insurance" viewBox="0 0 8472 12330"><g><path class="fil0" d="M167 4236c0,110 -167,110 -167,0 0,-2339 1897,-4236 4236,-4236 2340,0 4236,1897 4236,4236 0,110 -166,110 -166,0 0,-1581 -2598,-1582 -2598,0 0,110 -171,110 -171,0 0,-1577 -2602,-1577 -2602,0 0,110 -171,110 -171,0 0,-1574 -2597,-1585 -2597,0zm2612 -614c45,-910 188,-1726 396,-2349 166,-495 376,-871 614,-1082 -1786,195 -3232,1549 -3555,3305 615,-887 2035,-816 2545,126zm2745 -41c-46,-875 -185,-1658 -385,-2255 -516,-1545 -1290,-1545 -1806,0 -200,597 -338,1380 -385,2255 555,-943 2021,-943 2576,0zm2714 -85c-322,-1756 -1768,-3110 -3555,-3305 239,211 448,587 614,1082 208,623 351,1439 396,2349 513,-947 1937,-1003 2545,-126z"/><path class="fil0" d="M3680 6174l0 -860c-155,103 -277,262 -277,456 0,189 124,314 277,404zm167 267c-297,-136 -610,-295 -610,-671 0,-388 295,-582 610,-727l0 1398z"/><path class="fil0" d="M4792 7472l0 870c157,-104 280,-264 280,-458 0,-191 -126,-320 -280,-412zm-166 -268c298,138 613,302 613,680 0,389 -297,583 -613,727l0 -1407z"/><path class="fil0" d="M4792 4335c684,158 1387,670 1387,1435 0,655 -1107,631 -1107,0 0,-195 -123,-355 -280,-458l0 1224c633,207 1389,578 1389,1348 0,766 -703,1277 -1389,1434 -3,729 -1110,728 -1112,-1 -390,-90 -729,-272 -974,-513 -257,-254 -409,-573 -409,-920 0,-645 1106,-645 1106,0 0,193 122,352 277,455l0 -1223c-628,-203 -1388,-585 -1388,-1348 0,-766 703,-1277 1388,-1434 3,-729 1110,-728 1112,1zm-945 2l0 133c-651,129 -1389,546 -1389,1298 0,723 810,1047 1389,1226l0 1616c-313,-143 -610,-336 -610,-726 0,-426 -774,-426 -774,0 0,301 134,579 360,801 287,284 635,419 1024,496l0 134c0,513 779,513 779,0l0 -133c653,-130 1388,-547 1388,-1298 0,-730 -808,-1044 -1388,-1227l0 -1486 0 -129c314,143 613,336 613,728 0,415 773,432 773,0 0,-751 -734,-1169 -1386,-1299l0 -134c0,-513 -779,-513 -779,0z"/></g></symbol>

  <symbol id="icon-mobile" viewBox="0 0 67 83.75"><g><path d="M60.7477875,1.7480469H29.7477856c-2.0180664,0-3.659668,1.6416016-3.659668,3.659668v12.8322144L3.0578449,27.90625   c-0.2607422,0.109375-0.4379883,0.3554688-0.4580078,0.6376953s0.1196289,0.5517578,0.3623047,0.6972656l2.937012,1.7578735   v18.7322998c-1.5018921,0.3424072-2.6289065,1.6866455-2.6289065,3.2949829v1.8056641c0,0.4140625,0.3359375,0.75,0.7500002,0.75   h5.2592773c0.4140625,0,0.75-0.3359375,0.75-0.75v-1.8056641c0-1.6062012-1.1271973-2.9486084-2.6303711-3.2932129V31.8968506   l2.3222656,1.3898926c-0.0713997,0.5354958-0.0090437-0.9333267-0.0332031,8.7210693   c0,3.173584,8.1289053,4.8736572,16.3999023,4.9710693v14.6187744c0,0.755127,0.2312012,1.4573975,0.6265259,2.0402832   c0.6577148,0.9729004,1.7709961,1.6140137,3.031189,1.6140137h31.0000019c2.0161133,0,3.65625-1.640625,3.65625-3.65625   c-0.0000534,0.1001129-0.0041199-3.0966225,0-56.1875C64.4020844,3.4175251,62.7560692,1.7480469,60.7477875,1.7480469z    M8.5295248,53.0263672v1.0556641H4.7702475v-1.0556641c0-1.0390625,0.8413086-1.8847656,1.875-1.8847656   C7.68431,51.1416016,8.5295248,51.9873047,8.5295248,53.0263672z M60.7477875,63.7480469H29.7477856   c-0.7438354,0-1.4009399-0.3765259-1.7894897-0.947998c-0.232666-0.3441772-0.3687134-0.758728-0.3687134-1.2043457v-5.0673828   h35.3085938v5.0693359C62.8981781,62.7723465,61.9192657,63.7480469,60.7477875,63.7480469z M62.8981781,55.0283203H27.5881176   v-8.0449219c4.0383148-0.0462685,16.4096699-0.9355965,16.4096699-4.9755859   c-0.0044556-6.064888,0.0106964-8.5242271-0.019043-8.7324219l6.7348633-4.0341797   c0.2426758-0.1455078,0.3823242-0.4150391,0.3623047-0.6972656s-0.1972656-0.5283203-0.4580078-0.6376953l-23.0297871-9.6665039   v-6.2641602h35.3100586V55.0283203z M26.8381176,37.0283203c-4.1601658,0-12.1701193,0.5372849-15.6499014,2.8095703   c0.0220804-6.9501648-0.2411404-6.4975128,0.6147461-7.0869141c2.1616211-1.5917969,8.3442373-2.703125,15.0351553-2.703125   c2.9183159,0,15.6596699,0.8023186,15.6596699,3.5v6.2910156C38.9853973,37.5454597,31.0160751,37.0283203,26.8381176,37.0283203z    M27.5895824,5.4082031c0-1.1889648,0.9672852-2.15625,2.15625-2.15625h31.0000019   c1.1900253,0,2.1523438,0.9808574,2.1523438,2.1557617v5.0678711H27.5895824V5.4082031z M26.8381176,19.5517578   l21.833498,9.1640625l-5.4099731,3.2374268c-2.8761902-2.8522911-12.3904743-3.4053955-16.4235249-3.4053955   c-4.0383663,0-13.5532837,0.5548306-16.4233398,3.40625l-5.4116211-3.2382813L26.8381176,19.5517578z M11.1882162,42.0078125   c0-1.2138672,5.374999-3.4794922,15.6499014-3.4794922c10.2812519,0,15.6596699,2.265625,15.6596699,3.4794922   c0,1.2148438-5.378418,3.4804688-15.6596699,3.4804688C16.5632153,45.4882813,11.1882162,43.2226563,11.1882162,42.0078125z"/><path d="M45.2458344,57.6591797c-1.3676758,0-2.4804688,1.1123047-2.4804688,2.4804688s1.112793,2.4814453,2.4804688,2.4814453   c1.3681641,0,2.480957-1.1132813,2.480957-2.4814453S46.6139984,57.6591797,45.2458344,57.6591797z M45.2458344,61.1210938   c-0.5405273,0-0.9804688-0.4404297-0.9804688-0.9814453s0.4399414-0.9804688,0.9804688-0.9804688   c0.5410156,0,0.980957,0.4394531,0.980957,0.9804688S45.78685,61.1210938,45.2458344,61.1210938z"/><rect x="42.3849945" y="6.1137695" width="5.7216797" height="1.5"/></g></symbol>

  <symbol id="icon-study" viewBox="206 206 100 125"><g><path d="M298.683,224.262c0-0.002-0.002-0.004-0.002-0.007c-0.019-0.045-0.042-0.089-0.069-0.13   c-0.003-0.003-0.005-0.006-0.007-0.009c-0.028-0.042-0.06-0.084-0.097-0.121l-13.817-13.816c-0.036-0.036-0.075-0.066-0.117-0.094   c-0.008-0.006-0.018-0.011-0.026-0.017c-0.034-0.021-0.068-0.04-0.104-0.056c-0.011-0.005-0.021-0.01-0.031-0.013   c-0.09-0.036-0.187-0.055-0.284-0.058c-0.006,0-0.011-0.001-0.015-0.001h-60.868c-0.451,0-0.816,0.366-0.816,0.817v84.268   c0,0.054,0.005,0.106,0.016,0.16c0.005,0.023,0.013,0.044,0.02,0.066c0.009,0.029,0.016,0.058,0.027,0.086   c0.011,0.025,0.025,0.049,0.039,0.074c0.012,0.021,0.022,0.045,0.036,0.066c0.028,0.041,0.06,0.08,0.094,0.115   c0.003,0.003,0.004,0.007,0.008,0.009l6.223,6.222c0.319,0.319,0.835,0.319,1.155,0l5.648-5.645l5.646,5.645   c0.159,0.16,0.369,0.239,0.578,0.239c0.208,0,0.417-0.079,0.577-0.239l5.645-5.644l5.648,5.644c0.319,0.319,0.836,0.319,1.155,0   l5.645-5.644l5.645,5.644c0.319,0.319,0.836,0.319,1.154,0l5.65-5.645l5.645,5.645c0.159,0.16,0.369,0.239,0.577,0.239   c0.209,0,0.418-0.079,0.578-0.239l5.645-5.644l5.649,5.644c0.318,0.319,0.836,0.319,1.154,0l6.223-6.222   c0.012-0.012,0.021-0.026,0.032-0.039c0.023-0.027,0.048-0.054,0.068-0.084c0.019-0.027,0.032-0.058,0.047-0.087   c0.01-0.019,0.021-0.035,0.027-0.054c0.017-0.037,0.025-0.075,0.035-0.113c0.004-0.013,0.01-0.025,0.013-0.038   c0.011-0.056,0.017-0.11,0.017-0.167v-70.445C298.746,224.467,298.725,224.361,298.683,224.262z M284.929,212.729l11.028,11.027   h-11.028V212.729L284.929,212.729z M297.112,294.685l-5.405,5.405l-5.649-5.645c-0.318-0.318-0.835-0.318-1.154,0l-5.645,5.645   l-5.645-5.645c-0.319-0.318-0.836-0.318-1.155,0l-5.649,5.645l-5.644-5.642c0-0.001-0.001-0.002-0.001-0.003   c-0.159-0.159-0.368-0.239-0.578-0.239c-0.209,0-0.418,0.08-0.577,0.239c-0.001,0.001-0.001,0.001-0.001,0.001l-5.644,5.644   l-5.648-5.645c-0.319-0.318-0.835-0.318-1.155,0l-5.645,5.645l-5.646-5.645c-0.319-0.318-0.835-0.318-1.155,0l-5.648,5.645   l-5.406-5.405v-83.113h59.234v13c0,0.451,0.366,0.817,0.817,0.817h12.998L297.112,294.685L297.112,294.685z"/><path d="M230.152,219.298h26.746c0.451,0,0.817-0.366,0.817-0.817s-0.366-0.817-0.817-0.817h-26.746   c-0.452,0-0.817,0.366-0.817,0.817S229.7,219.298,230.152,219.298z"/><path d="M230.152,224.349h42.891c0.451,0,0.817-0.366,0.817-0.817c0-0.451-0.366-0.817-0.817-0.817h-42.891   c-0.452,0-0.817,0.366-0.817,0.817C229.335,223.983,229.7,224.349,230.152,224.349z"/><path d="M229.335,228.883v26.446c0,0.451,0.365,0.817,0.817,0.817h60.87c0.451,0,0.816-0.366,0.816-0.817v-26.446   c0-0.451-0.365-0.817-0.816-0.817h-60.87C229.7,228.066,229.335,228.432,229.335,228.883z M247.386,229.7h42.818v7.029h-42.818   V229.7z M247.386,238.363h42.818v7.026h-42.818V238.363z M247.386,247.022h42.818v7.49h-42.818V247.022z M230.969,229.7h14.784   v7.029h-14.784V229.7z M230.969,238.363h14.784v7.026h-14.784V238.363z M230.969,247.022h14.784v7.49h-14.784V247.022z"/><path d="M291.022,259.821h-60.87c-0.452,0-0.817,0.366-0.817,0.817v26.445c0,0.451,0.365,0.816,0.817,0.816   c0.451,0,0.816-0.365,0.816-0.816v-8.306h14.784v8.306c0,0.451,0.366,0.816,0.816,0.816c0.452,0,0.817-0.365,0.817-0.816v-8.306   h42.818v8.306c0,0.451,0.366,0.816,0.817,0.816s0.816-0.365,0.816-0.816v-26.445C291.838,260.187,291.473,259.821,291.022,259.821z    M245.753,277.143h-14.784v-7.025h14.784V277.143L245.753,277.143z M245.753,268.483h-14.784v-7.027h14.784V268.483   L245.753,268.483z M290.204,277.143h-42.818v-7.025h42.818V277.143z M290.204,268.483h-42.818v-7.027h42.818V268.483z"/><path d="M218.557,209.939c-0.451,0-0.817,0.366-0.817,0.817v84.268c0,0.45,0.366,0.816,0.817,0.816   c0.451,0,0.817-0.366,0.817-0.816v-84.268C219.374,210.305,219.008,209.939,218.557,209.939z"/><path d="M214.065,209.939c-0.451,0-0.817,0.366-0.817,0.817v84.268c0,0.45,0.366,0.816,0.817,0.816s0.816-0.366,0.816-0.816   v-84.268C214.881,210.305,214.516,209.939,214.065,209.939z"/></g></symbol>

  <symbol id="icon-vk" viewBox="0 0 512 512">
<path style="fill:#436EAB;" d="M440.649,295.361c16.984,16.582,34.909,32.182,50.142,50.436
	c6.729,8.112,13.099,16.482,17.973,25.896c6.906,13.382,0.651,28.108-11.348,28.907l-74.59-0.034
	c-19.238,1.596-34.585-6.148-47.489-19.302c-10.327-10.519-19.891-21.714-29.821-32.588c-4.071-4.444-8.332-8.626-13.422-11.932
	c-10.182-6.609-19.021-4.586-24.84,6.034c-5.926,10.802-7.271,22.762-7.853,34.8c-0.799,17.564-6.108,22.182-23.751,22.986
	c-37.705,1.778-73.489-3.926-106.732-22.947c-29.308-16.768-52.034-40.441-71.816-67.24
	C58.589,258.194,29.094,200.852,2.586,141.904c-5.967-13.281-1.603-20.41,13.051-20.663c24.333-0.473,48.663-0.439,73.025-0.034
	c9.89,0.145,16.437,5.817,20.256,15.16c13.165,32.371,29.274,63.169,49.494,91.716c5.385,7.6,10.876,15.201,18.694,20.55
	c8.65,5.923,15.236,3.96,19.305-5.676c2.582-6.11,3.713-12.691,4.295-19.234c1.928-22.513,2.182-44.988-1.199-67.422
	c-2.076-14.001-9.962-23.065-23.933-25.714c-7.129-1.351-6.068-4.004-2.616-8.073c5.995-7.018,11.634-11.387,22.875-11.387h84.298
	c13.271,2.619,16.218,8.581,18.035,21.934l0.072,93.637c-0.145,5.169,2.582,20.51,11.893,23.931
	c7.452,2.436,12.364-3.526,16.836-8.251c20.183-21.421,34.588-46.737,47.457-72.951c5.711-11.527,10.622-23.497,15.381-35.458
	c3.526-8.875,9.059-13.242,19.056-13.049l81.132,0.072c2.406,0,4.84,0.035,7.17,0.434c13.671,2.33,17.418,8.211,13.195,21.561
	c-6.653,20.945-19.598,38.4-32.255,55.935c-13.53,18.721-28.001,36.802-41.418,55.634
	C424.357,271.756,425.336,280.424,440.649,295.361L440.649,295.361z"/>
<g>
</g>
<g>
</g>
<g>
</g>
<g>
</g>
<g>
</g>
<g>
</g>
<g>
</g>
<g>
</g>
<g>
</g>
<g>
</g>
<g>
</g>
<g>
</g>
<g>
</g>
<g>
</g>
<g>
</g>
</symbol></svg>
